Patient4_TMGait_0pt6_01_left_36_GRF.mot
version=1
nRows=51
nColumns=19
inDegrees=no
endheader
time	F1x	F1y	F1z	M1x	M1y	M1z	F2x	F2y	F2z	M2x	M2y	M2z	EC1x	EC1y	EC1z	EC2x	EC2y	EC2z
43.82	2.852	8.9779	0.48653	-2.1715	-1.0092	11.1945	-37.4801	726.7797	-58.1541	303.8089	71.9141	755.6298	-0.0592	0.0182	-0.0073	-0.0462	0.0165	0.9585
43.8324	1.9861	6.7943	0.26605	-1.73	-0.64291	8.278	-34.8015	738.0294	-56.1612	308.0363	69.6597	764.6037	-0.0592	0.0182	-0.0073	-0.0462	0.0165	0.9585
43.8447	1.2449	5.004	0.076173	-1.3744	-0.33449	5.9205	-32.5028	751.4082	-54.525	313.2175	67.7626	775.0413	-0.0592	0.0182	-0.0073	-0.0462	0.0165	0.9585
43.8571	0.66707	3.6985	-0.077535	-1.1217	-0.09785	4.2342	-30.7566	766.113	-53.3331	319.0218	66.3375	786.2627	-0.0592	0.0182	-0.0073	-0.0462	0.0165	0.9585
43.8694	0.26312	2.8391	-0.18399	-0.96141	0.062072	3.1385	-29.5837	781.0026	-52.5861	324.9593	65.3936	797.292	-0.0592	0.0182	-0.0073	-0.0462	0.0165	0.9585
43.8818	-0.013963	2.3508	-0.25327	-0.87668	0.15723	2.5231	-28.8764	794.7277	-52.221	330.4463	64.8501	806.9445	-0.0592	0.0182	-0.0073	-0.0462	0.0165	0.9585
43.8941	-0.18276	2.0979	-0.2791	-0.8366	0.1964	2.2069	-28.471	805.9144	-52.1474	334.8889	64.5788	813.9893	-0.0592	0.0182	-0.0073	-0.0462	0.0165	0.9585
43.9065	-0.3067	1.9486	-0.28001	-0.80826	0.19539	2.0383	-28.1933	813.3098	-52.2383	337.7534	64.4099	817.2888	-0.0592	0.0182	-0.0073	-0.0462	0.0165	0.9585
43.9189	-0.40491	1.7449	-0.25387	-0.74596	0.15521	1.8164	-27.8799	815.9561	-52.3691	338.6414	64.1802	815.969	-0.0592	0.0182	-0.0073	-0.0462	0.0165	0.9585
43.9312	-0.51768	1.351	-0.22127	-0.60731	0.088035	1.3961	-27.4016	813.3808	-52.3881	337.3626	63.7167	809.6161	-0.0592	0.0182	-0.0073	-0.0462	0.0165	0.9585
43.9436	-0.65052	0.62194	-0.17554	-0.34628	-0.011132	0.60659	-26.6554	805.6159	-52.1846	333.9404	62.8957	798.2826	-0.0592	0.0182	-0.0073	-0.0462	0.0165	0.9585
43.9559	-0.82285	-0.55071	-0.12764	0.075238	-0.13076	-0.67036	-25.5845	793.1717	-51.7213	328.5913	61.6749	782.473	-0.0592	0.0182	-0.0073	-0.0462	0.0165	0.9585
43.9683	-1.0013	-2.2448	-0.076883	0.68551	-0.25426	-2.5268	-24.1354	776.9579	-51.0419	321.6929	60.0899	763.0496	-0.0592	0.0182	-0.0073	-0.0462	0.0165	0.9585
43.9806	-1.1424	-4.4325	-0.03287	1.4769	-0.35013	-4.9298	-22.3017	758.2193	-50.2487	313.7555	58.2377	741.2023	-0.0592	0.0182	-0.0073	-0.0462	0.0165	0.9585
43.993	-1.162	-6.9482	0.00049811	2.3889	-0.37918	-7.6974	-20.055	738.36	-49.4887	305.3537	56.2481	718.2477	-0.0592	0.0182	-0.0073	-0.0462	0.0165	0.9585
44.0054	-0.9214	-9.3836	0.013375	3.2728	-0.28494	-10.3811	-17.3934	718.7959	-48.8879	297.063	54.2353	695.5228	-0.0592	0.0182	-0.0073	-0.0462	0.0165	0.9585
44.0177	-0.25365	-11.005	0.0017971	3.861	-0.0096103	-12.1799	-14.2922	700.7264	-48.5332	289.3755	52.2728	674.1311	-0.0592	0.0182	-0.0073	-0.0462	0.0165	0.9585
44.0301	1.0452	-10.6805	-0.035735	3.7398	0.5148	-11.8588	-10.7626	685.088	-48.4541	282.6692	50.3898	654.9568	-0.0592	0.0182	-0.0073	-0.0462	0.0165	0.9585
44.0424	3.1694	-6.8045	-0.10075	2.3263	1.355	-7.6296	-6.7994	672.4365	-48.6459	277.1689	48.5748	638.515	-0.0592	0.0182	-0.0073	-0.0462	0.0165	0.9585
44.0548	6.2913	2.6827	-0.19215	-1.1238	2.561	2.7853	-2.4416	662.9589	-49.0473	272.9501	46.7767	625.0008	-0.0592	0.0182	-0.0073	-0.0462	0.0165	0.9585
44.0671	10.4252	20.1413	-0.31596	-7.457	4.1319	21.9956	2.2492	656.4582	-49.5498	269.9386	44.9176	614.267	-0.0592	0.0182	-0.0073	-0.0462	0.0165	0.9585
44.0795	15.3707	47.8512	-0.46139	-17.4922	5.97	52.5085	7.1427	652.3546	-49.9896	267.9065	42.9019	605.8464	-0.0592	0.0182	-0.0073	-0.0462	0.0165	0.9585
44.0919	20.5077	87.3573	-0.61391	-31.7856	7.8281	96.05	12.0698	649.6235	-50.1747	266.4473	40.6351	598.8878	-0.0592	0.0182	-0.0073	-0.0462	0.0165	0.9585
44.1042	24.6574	138.4281	-0.74224	-50.2507	9.2439	152.3744	16.8249	646.7623	-49.9162	264.9567	38.0482	592.115	-0.0592	0.0182	-0.0073	-0.0462	0.0165	0.9585
44.1166	25.8897	197.6203	-0.79458	-71.6385	9.4761	217.718	21.1817	641.8016	-49.0642	262.6388	35.1159	583.8319	-0.0592	0.0182	-0.0073	-0.0462	0.0165	0.9585
44.1289	22.0706	257.1204	-0.56281	-93.1191	7.578	283.5297	24.9569	632.525	-47.5249	258.6005	31.8485	572.1024	-0.0592	0.0182	-0.0073	-0.0462	0.0165	0.9585
44.1413	13.9012	307.4375	0.93818	-111.2333	2.7885	339.3626	27.9772	616.9778	-45.3052	252.0555	28.343	555.2213	-0.0592	0.0182	-0.0073	-0.0462	0.0165	0.9585
44.1536	4.3625	344.3181	4.2012	-124.4037	-4.318	380.2262	30.1701	594.026	-42.5035	242.5435	24.7424	532.1711	-0.0592	0.0182	-0.0073	-0.0462	0.0165	0.9585
44.166	-4.5263	369.3181	8.2872	-133.2078	-12.0369	407.5027	31.5186	563.506	-39.3649	229.9762	21.2698	502.8202	-0.0592	0.0182	-0.0073	-0.0462	0.0165	0.9585
44.1784	-11.7431	386.8569	12.9467	-139.264	-19.667	425.9064	32.1702	525.8437	-36.1726	214.513	18.1131	467.5111	-0.0592	0.0182	-0.0073	-0.0462	0.0165	0.9585
44.1907	-17.0739	402.3129	17.4324	-144.5498	-26.3573	441.2717	32.1406	481.9694	-33.0002	196.5217	15.3106	427.0734	-0.0592	0.0182	-0.0073	-0.0462	0.0165	0.9585
44.2031	-20.9308	420.1193	21.7776	-150.6682	-32.2465	458.5647	31.4131	433.0397	-29.8047	176.4859	12.8241	382.5104	-0.0592	0.0182	-0.0073	-0.0462	0.0165	0.9585
44.2154	-23.6265	443.3218	25.6267	-158.7244	-37.1044	480.9494	29.8467	380.4958	-26.4606	154.9968	10.5888	335.1278	-0.0592	0.0182	-0.0073	-0.0462	0.0165	0.9585
44.2278	-25.4372	473.5801	29.3106	-169.2662	-41.3581	510.281	27.3345	325.9077	-22.9361	132.7056	8.6148	286.2968	-0.0592	0.0182	-0.0073	-0.0462	0.0165	0.9585
44.2401	-26.3222	511.1879	32.7905	-182.3585	-45.0027	546.7989	23.8129	271.1279	-19.2891	110.3611	6.9637	237.6463	-0.0592	0.0182	-0.0073	-0.0462	0.0165	0.9585
44.2525	-26.4734	555.121	36.5419	-197.5414	-48.5843	589.5252	19.4346	218.1424	-15.7246	88.7654	5.7409	190.8726	-0.0592	0.0182	-0.0073	-0.0462	0.0165	0.9585
44.2649	-26.023	602.8859	40.6971	-213.8704	-52.3052	635.8193	14.5394	168.9687	-12.4264	68.7313	4.9484	147.6839	-0.0592	0.0182	-0.0073	-0.0462	0.0165	0.9585
44.2772	-25.3329	651.4236	45.5751	-230.1893	-56.6041	682.64	9.6429	125.345	-9.5599	50.9554	4.5076	109.5282	-0.0592	0.0182	-0.0073	-0.0462	0.0165	0.9585
44.2896	-24.5161	697.7756	51.0163	-245.4477	-61.3616	726.886	5.2851	88.3787	-7.1519	35.8914	4.2185	77.2766	-0.0592	0.0182	-0.0073	-0.0462	0.0165	0.9585
44.3019	-23.6443	739.6339	56.6708	-258.8568	-66.2425	766.2518	1.8076	58.4877	-5.1743	23.7112	3.9159	51.2544	-0.0592	0.0182	-0.0073	-0.0462	0.0165	0.9585
44.3143	-22.5757	775.1254	61.9323	-269.8373	-70.6031	798.8081	-0.58714	35.4636	-3.5536	14.3399	3.4686	31.2211	-0.0592	0.0182	-0.0073	-0.0462	0.0165	0.9585
44.3266	-21.2615	802.7368	66.3174	-277.9488	-73.9555	823.0723	-1.9841	18.7471	-2.241	7.5451	2.8672	16.7104	-0.0592	0.0182	-0.0073	-0.0462	0.0165	0.9585
44.339	-19.6511	821.2478	69.5593	-282.8633	-76.0265	837.8515	-2.487	7.479	-1.2079	2.9802	2.1423	6.9311	-0.0592	0.0182	-0.0073	-0.0462	0.0165	0.9585
44.3514	-17.7182	830.0374	71.5613	-284.4437	-76.731	842.6028	-2.4397	0.70339	-0.46271	0.24453	1.436	1.0865	-0.0592	0.0182	-0.0073	-0.0462	0.0165	0.9585
44.3637	-15.4958	829.1579	72.42	-282.7835	-76.1829	837.4717	-2.061	-2.7398	0.011898	-1.1304	0.84236	-1.8774	-0.0592	0.0182	-0.0073	-0.0462	0.0165	0.9585
44.3761	-13.0055	819.5697	72.1979	-278.2822	-74.4746	823.4795	-1.597	-3.8841	0.28268	-1.5757	0.40312	-2.8307	-0.0592	0.0182	-0.0073	-0.0462	0.0165	0.9585
44.3884	-10.312	803.0828	71.0769	-271.6165	-71.8242	802.5414	-1.1162	-3.6596	0.39412	-1.4672	0.1189	-2.6212	-0.0592	0.0182	-0.0073	-0.0462	0.0165	0.9585
44.4008	-7.425	782.1663	69.1273	-263.6801	-68.3331	777.1312	-0.73082	-2.7229	0.41235	-1.0748	-0.039539	-1.795	-0.0592	0.0182	-0.0073	-0.0462	0.0165	0.9585
44.4131	-4.4569	759.5826	66.6081	-255.4409	-64.299	750.0266	-0.43119	-1.5566	0.36122	-0.58913	-0.10114	-0.79342	-0.0592	0.0182	-0.0073	-0.0462	0.0165	0.9585
44.4255	-1.3982	738.0151	63.6449	-247.8316	-59.8638	723.8417	-0.22991	-0.42734	0.28304	-0.11839	-0.10775	0.16495	-0.0592	0.0182	-0.0073	-0.0462	0.0165	0.9585
44.4379	1.6851	719.7938	60.5227	-241.6375	-55.3278	700.8749	-0.10663	0.5124	0.18646	0.27815	-0.076468	0.95016	-0.0592	0.0182	-0.0073	-0.0462	0.0165	0.9585
